<?xml version="1.0" encoding="iso-8859-1"?>
<!-- Generator: Adobe Illustrator 19.0.0, SVG Export Plug-In . SVG Version: 6.00 Build 0)  -->
<svg version="1.1" id="Capa_1" xmlns="http://www.w3.org/2000/svg" xmlns:xlink="http://www.w3.org/1999/xlink" x="0px" y="0px"
	 viewBox="0 0 480.001 480.001" style="enable-background:new 0 0 480.001 480.001;" xml:space="preserve">
<linearGradient id="SVGID_1_" gradientUnits="userSpaceOnUse" x1="-41.8745" y1="620.0215" x2="-41.8745" y2="556.6495" gradientTransform="matrix(8 0 0 -8 454.9965 4941.0044)">
	<stop  offset="0" style="stop-color:#FC5C7D"/>
	<stop  offset="0.129" style="stop-color:#F35E85"/>
	<stop  offset="0.343" style="stop-color:#D9659B"/>
	<stop  offset="0.616" style="stop-color:#B070BF"/>
	<stop  offset="0.934" style="stop-color:#777FF0"/>
	<stop  offset="1" style="stop-color:#6A82FB"/>
</linearGradient>
<path style="fill:url(#SVGID_1_);" d="M120.001,280.001c17.673,0,32-14.327,32-32c0-17.673-14.327-32-32-32s-32,14.327-32,32
	C88.001,265.674,102.327,280.001,120.001,280.001z M120.001,232.001c8.837,0,16,7.163,16,16s-7.163,16-16,16s-16-7.163-16-16
	S111.164,232.001,120.001,232.001z"/>
<g>
	
		<linearGradient id="SVGID_2_" gradientUnits="userSpaceOnUse" x1="-26.8745" y1="620.0215" x2="-26.8745" y2="556.6495" gradientTransform="matrix(8 0 0 -8 454.9965 4941.0044)">
		<stop  offset="0" style="stop-color:#FC5C7D"/>
		<stop  offset="0.129" style="stop-color:#F35E85"/>
		<stop  offset="0.343" style="stop-color:#D9659B"/>
		<stop  offset="0.616" style="stop-color:#B070BF"/>
		<stop  offset="0.934" style="stop-color:#777FF0"/>
		<stop  offset="1" style="stop-color:#6A82FB"/>
	</linearGradient>
	<path style="fill:url(#SVGID_2_);" d="M448,32.001H296v-24c0-4.418-3.582-8-8-8h-280c-4.369-0.049-7.951,3.454-8,7.823
		C0,7.883,0,7.942,0.001,8.001v408c0.003,3.442,2.206,6.496,5.472,7.584l168,56c0.814,0.276,1.668,0.416,2.528,0.416
		c4.418,0,8-3.582,8-8v-48h28.448c5.672,9.867,16.171,15.964,27.552,16h208c17.673,0,32-14.327,32-32v-80c0-17.673-14.327-32-32-32
		H314.4l-18.4-12.28v-63.44l18.4-12.28H448c17.673,0,32-14.327,32-32v-112C480,46.327,465.674,32.001,448,32.001z M464,64.001v32
		h-240v-32c0-8.837,7.163-16,16-16h208C456.837,48.001,464,55.164,464,64.001z M168.001,460.897l-152-50.664V19.105l152,50.664
		V460.897z M312,312.001h136c8.837,0,16,7.163,16,16v80c0,8.837-7.163,16-16,16h-208c-8.837,0-16-7.163-16-16v-80
		c0-8.837,7.163-16,16-16h24c4.418,0,8-3.582,8-8v-17.056l35.56,23.712C308.876,311.531,310.421,311.998,312,312.001z M280,273.057
		l-11.56-7.712c-3.675-2.452-8.643-1.461-11.095,2.215c-0.877,1.315-1.345,2.86-1.345,4.441v24h-16c-17.673,0-32,14.327-32,32v80
		h-24v-344c-0.003-3.442-2.206-6.496-5.472-7.584L57.289,16.001H280v16h-40c-17.673,0-32,14.327-32,32v112c0,17.673,14.327,32,32,32
		h16v24c-0.001,4.418,3.581,8.001,7.999,8.001c1.581,0,3.126-0.468,4.441-1.345l11.56-7.712V273.057z M448,192.001H312
		c-1.58,0.003-3.124,0.47-4.44,1.344L272,217.057v-17.056c0-4.418-3.582-8-8-8h-24c-8.837,0-16-7.163-16-16v-64h240v64
		C464,184.837,456.837,192.001,448,192.001z"/>
	
		<linearGradient id="SVGID_3_" gradientUnits="userSpaceOnUse" x1="-13.8745" y1="620.0215" x2="-13.8745" y2="556.6495" gradientTransform="matrix(8 0 0 -8 454.9965 4941.0044)">
		<stop  offset="0" style="stop-color:#FC5C7D"/>
		<stop  offset="0.129" style="stop-color:#F35E85"/>
		<stop  offset="0.343" style="stop-color:#D9659B"/>
		<stop  offset="0.616" style="stop-color:#B070BF"/>
		<stop  offset="0.934" style="stop-color:#777FF0"/>
		<stop  offset="1" style="stop-color:#6A82FB"/>
	</linearGradient>
	<path style="fill:url(#SVGID_3_);" d="M248.001,160.001h192v16h-192V160.001z"/>
	
		<linearGradient id="SVGID_4_" gradientUnits="userSpaceOnUse" x1="-22.8745" y1="620.0215" x2="-22.8745" y2="556.6495" gradientTransform="matrix(8 0 0 -8 454.9965 4941.0044)">
		<stop  offset="0" style="stop-color:#FC5C7D"/>
		<stop  offset="0.129" style="stop-color:#F35E85"/>
		<stop  offset="0.343" style="stop-color:#D9659B"/>
		<stop  offset="0.616" style="stop-color:#B070BF"/>
		<stop  offset="0.934" style="stop-color:#777FF0"/>
		<stop  offset="1" style="stop-color:#6A82FB"/>
	</linearGradient>
	<path style="fill:url(#SVGID_4_);" d="M264,128.001h16v16h-16V128.001z"/>
	
		<linearGradient id="SVGID_5_" gradientUnits="userSpaceOnUse" x1="-10.8745" y1="620.0215" x2="-10.8745" y2="556.6495" gradientTransform="matrix(8 0 0 -8 454.9965 4941.0044)">
		<stop  offset="0" style="stop-color:#FC5C7D"/>
		<stop  offset="0.129" style="stop-color:#F35E85"/>
		<stop  offset="0.343" style="stop-color:#D9659B"/>
		<stop  offset="0.616" style="stop-color:#B070BF"/>
		<stop  offset="0.934" style="stop-color:#777FF0"/>
		<stop  offset="1" style="stop-color:#6A82FB"/>
	</linearGradient>
	<path style="fill:url(#SVGID_5_);" d="M296,128.001h144v16H296V128.001z"/>
	
		<linearGradient id="SVGID_6_" gradientUnits="userSpaceOnUse" x1="-25.8745" y1="620.0215" x2="-25.8745" y2="556.6495" gradientTransform="matrix(8 0 0 -8 454.9965 4941.0044)">
		<stop  offset="0" style="stop-color:#FC5C7D"/>
		<stop  offset="0.129" style="stop-color:#F35E85"/>
		<stop  offset="0.343" style="stop-color:#D9659B"/>
		<stop  offset="0.616" style="stop-color:#B070BF"/>
		<stop  offset="0.934" style="stop-color:#777FF0"/>
		<stop  offset="1" style="stop-color:#6A82FB"/>
	</linearGradient>
	<path style="fill:url(#SVGID_6_);" d="M240.001,64.001h16v16h-16V64.001z"/>
	
		<linearGradient id="SVGID_7_" gradientUnits="userSpaceOnUse" x1="-21.8745" y1="620.0215" x2="-21.8745" y2="556.6495" gradientTransform="matrix(8 0 0 -8 454.9965 4941.0044)">
		<stop  offset="0" style="stop-color:#FC5C7D"/>
		<stop  offset="0.129" style="stop-color:#F35E85"/>
		<stop  offset="0.343" style="stop-color:#D9659B"/>
		<stop  offset="0.616" style="stop-color:#B070BF"/>
		<stop  offset="0.934" style="stop-color:#777FF0"/>
		<stop  offset="1" style="stop-color:#6A82FB"/>
	</linearGradient>
	<path style="fill:url(#SVGID_7_);" d="M272,64.001h16v16h-16V64.001z"/>
	
		<linearGradient id="SVGID_8_" gradientUnits="userSpaceOnUse" x1="-17.8745" y1="620.0215" x2="-17.8745" y2="556.6495" gradientTransform="matrix(8 0 0 -8 454.9965 4941.0044)">
		<stop  offset="0" style="stop-color:#FC5C7D"/>
		<stop  offset="0.129" style="stop-color:#F35E85"/>
		<stop  offset="0.343" style="stop-color:#D9659B"/>
		<stop  offset="0.616" style="stop-color:#B070BF"/>
		<stop  offset="0.934" style="stop-color:#777FF0"/>
		<stop  offset="1" style="stop-color:#6A82FB"/>
	</linearGradient>
	<path style="fill:url(#SVGID_8_);" d="M304,64.001h16v16h-16V64.001z"/>
	
		<linearGradient id="SVGID_9_" gradientUnits="userSpaceOnUse" x1="-24.0209" y1="620.0215" x2="-24.0209" y2="556.6495" gradientTransform="matrix(8 0 0 -8 454.9965 4941.0044)">
		<stop  offset="0" style="stop-color:#FC5C7D"/>
		<stop  offset="0.129" style="stop-color:#F35E85"/>
		<stop  offset="0.343" style="stop-color:#D9659B"/>
		<stop  offset="0.616" style="stop-color:#B070BF"/>
		<stop  offset="0.934" style="stop-color:#777FF0"/>
		<stop  offset="1" style="stop-color:#6A82FB"/>
	</linearGradient>
	<path style="fill:url(#SVGID_9_);" d="M266.344,330.345l-16,16c-3.123,3.124-3.123,8.188,0,11.312l16,16l11.312-11.312
		l-10.344-10.344l10.344-10.344L266.344,330.345z"/>
	
		<linearGradient id="SVGID_10_" gradientUnits="userSpaceOnUse" x1="-15.7281" y1="620.0215" x2="-15.7281" y2="556.6495" gradientTransform="matrix(8 0 0 -8 454.9965 4941.0044)">
		<stop  offset="0" style="stop-color:#FC5C7D"/>
		<stop  offset="0.129" style="stop-color:#F35E85"/>
		<stop  offset="0.343" style="stop-color:#D9659B"/>
		<stop  offset="0.616" style="stop-color:#B070BF"/>
		<stop  offset="0.934" style="stop-color:#777FF0"/>
		<stop  offset="1" style="stop-color:#6A82FB"/>
	</linearGradient>
	<path style="fill:url(#SVGID_10_);" d="M325.656,373.657l16-16c3.123-3.124,3.123-8.188,0-11.312l-16-16l-11.312,11.312
		l10.344,10.344l-10.344,10.344L325.656,373.657z"/>
</g>
<linearGradient id="SVGID_11_" gradientUnits="userSpaceOnUse" x1="3.4662" y1="594.3719" x2="-56.6468" y2="574.322" gradientTransform="matrix(2.531 -7.589 -7.589 -2.531 4797.9312 1511.5105)">
	<stop  offset="0" style="stop-color:#FC5C7D"/>
	<stop  offset="0.129" style="stop-color:#F35E85"/>
	<stop  offset="0.343" style="stop-color:#D9659B"/>
	<stop  offset="0.616" style="stop-color:#B070BF"/>
	<stop  offset="0.934" style="stop-color:#777FF0"/>
	<stop  offset="1" style="stop-color:#6A82FB"/>
</linearGradient>
<path style="fill:url(#SVGID_11_);" d="M280.407,373.441l16.009-48.001l15.178,5.062l-16.009,48.001L280.407,373.441z"/>
<g>
	
		<linearGradient id="SVGID_12_" gradientUnits="userSpaceOnUse" x1="-10.8745" y1="620.0215" x2="-10.8745" y2="556.6495" gradientTransform="matrix(8 0 0 -8 454.9965 4941.0044)">
		<stop  offset="0" style="stop-color:#FC5C7D"/>
		<stop  offset="0.129" style="stop-color:#F35E85"/>
		<stop  offset="0.343" style="stop-color:#D9659B"/>
		<stop  offset="0.616" style="stop-color:#B070BF"/>
		<stop  offset="0.934" style="stop-color:#777FF0"/>
		<stop  offset="1" style="stop-color:#6A82FB"/>
	</linearGradient>
	<path style="fill:url(#SVGID_12_);" d="M360,344.001h16v16h-16V344.001z"/>
	
		<linearGradient id="SVGID_13_" gradientUnits="userSpaceOnUse" x1="-24.8745" y1="620.0215" x2="-24.8745" y2="556.6495" gradientTransform="matrix(8 0 0 -8 454.9965 4941.0044)">
		<stop  offset="0" style="stop-color:#FC5C7D"/>
		<stop  offset="0.129" style="stop-color:#F35E85"/>
		<stop  offset="0.343" style="stop-color:#D9659B"/>
		<stop  offset="0.616" style="stop-color:#B070BF"/>
		<stop  offset="0.934" style="stop-color:#777FF0"/>
		<stop  offset="1" style="stop-color:#6A82FB"/>
	</linearGradient>
	<path style="fill:url(#SVGID_13_);" d="M248.001,392.001h16v16h-16V392.001z"/>
	
		<linearGradient id="SVGID_14_" gradientUnits="userSpaceOnUse" x1="-11.8745" y1="620.0215" x2="-11.8745" y2="556.6495" gradientTransform="matrix(8 0 0 -8 454.9965 4941.0044)">
		<stop  offset="0" style="stop-color:#FC5C7D"/>
		<stop  offset="0.129" style="stop-color:#F35E85"/>
		<stop  offset="0.343" style="stop-color:#D9659B"/>
		<stop  offset="0.616" style="stop-color:#B070BF"/>
		<stop  offset="0.934" style="stop-color:#777FF0"/>
		<stop  offset="1" style="stop-color:#6A82FB"/>
	</linearGradient>
	<path style="fill:url(#SVGID_14_);" d="M280,392.001h160v16H280V392.001z"/>
	
		<linearGradient id="SVGID_15_" gradientUnits="userSpaceOnUse" x1="-6.8745" y1="620.0215" x2="-6.8745" y2="556.6495" gradientTransform="matrix(8 0 0 -8 454.9965 4941.0044)">
		<stop  offset="0" style="stop-color:#FC5C7D"/>
		<stop  offset="0.129" style="stop-color:#F35E85"/>
		<stop  offset="0.343" style="stop-color:#D9659B"/>
		<stop  offset="0.616" style="stop-color:#B070BF"/>
		<stop  offset="0.934" style="stop-color:#777FF0"/>
		<stop  offset="1" style="stop-color:#6A82FB"/>
	</linearGradient>
	<path style="fill:url(#SVGID_15_);" d="M392,344.001h16v16h-16V344.001z"/>
	
		<linearGradient id="SVGID_16_" gradientUnits="userSpaceOnUse" x1="-2.8745" y1="620.0215" x2="-2.8745" y2="556.6495" gradientTransform="matrix(8 0 0 -8 454.9965 4941.0044)">
		<stop  offset="0" style="stop-color:#FC5C7D"/>
		<stop  offset="0.129" style="stop-color:#F35E85"/>
		<stop  offset="0.343" style="stop-color:#D9659B"/>
		<stop  offset="0.616" style="stop-color:#B070BF"/>
		<stop  offset="0.934" style="stop-color:#777FF0"/>
		<stop  offset="1" style="stop-color:#6A82FB"/>
	</linearGradient>
	<path style="fill:url(#SVGID_16_);" d="M424,344.001h16v16h-16V344.001z"/>
</g>
<g>
</g>
<g>
</g>
<g>
</g>
<g>
</g>
<g>
</g>
<g>
</g>
<g>
</g>
<g>
</g>
<g>
</g>
<g>
</g>
<g>
</g>
<g>
</g>
<g>
</g>
<g>
</g>
<g>
</g>
</svg>
